<svg xmlns="http://www.w3.org/2000/svg" viewBox="0 0 367.26 151.03">
  <defs>
    <style>
      .cls-1{fill:#3391cf;}.cls-1,.cls-10,.cls-2{fill-rule:evenodd;}.cls-2{fill:#a4ca67;}.cls-10,.cls-3{fill:#e9e227;}.cls-4,.cls-5{fill:#1d1d1b;}.cls-5{font-size:18.25px;font-family:LEMONMILK-Light,
      LEMON
      MILK;font-weight:300;}.cls-6{letter-spacing:-0.04em;}.cls-7{letter-spacing:-0.1em;}.cls-8{letter-spacing:-0.07em;}.cls-9{fill:#e62b2a;}
    </style>
  </defs>
  <g id="Слой_2" data-name="Слой 2">
    <g id="Слой_1-2" data-name="Слой 1">
      <path class="cls-1" d="M231.29,0A59.1,59.1,0,1,1,172.2,59.09,59.1,59.1,0,0,1,231.29,0Z"/>
      <path class="cls-2"
            d="M183.51,89.62a55.5,55.5,0,0,1-7.62-17.53l10.41,5,.06,3.11c0,1.14-2,3.57-2.57,4.49l-.28,4.91Zm64-83.37a55.72,55.72,0,0,1,37.58,45.3l-1.88-.2c-.33,1.44-.64,1.47-.64,3.21,0,1.52,1.92,2.54,1.92,5.77,0,.86-2,2.58-2.11,2.89l-3-3.53v4.49l-.46,0-.8-8.29-1.69.53-2-6.16-6.59,6.88-.07,5-2.16,1.45-2.29-12.93-1.36,1-3.1-4.18-4.63.13-1.77-2-1.81.5L247.08,42l-.69.47,2.21,5.66h2.57V46.86h1.28c.92,2.56,1.92,1,1.92,2.57,0,5.34-6.59,9.26-10.91,10.26.23,1,.15,1.92,1.28,1.92,2.42,0,1.21-.42,3.85-.64-.13,5.45-6.25,12-8.87,16l1.17,8.35c.31,1.82-3.77,3.74-5.15,5.78l.66,3.21-1.87.76c-.33,3.29-3.52,6.93-7.11,6.93h-3.85c0-4.5-3.21-10.93-3.21-14.12,0-2.7,1.28-3.07,1.28-6.41,0-3.1-3.21-7.53-3.21-8.34V68h-2.56c-.39-1.43-.15-1.92-1.93-1.92h-.64c-2.8,0-2.33,1.28-5.14,1.28h-2.57c-2.31,0-6.41-7.43-6.41-8.34v-7.7c0-3.32,3-6.93,5.14-8.34v-3.2l2.88-2.93,1.61-.27c3.44,0,3-1.93,5.13-1.93h5.77v4.5l6.35,2.71.6-2.74c2.87.67,3.62,1.95,7.16,1.95h1.28c2.44,0,2.57-3.23,2.57-5.77l-5.13.51L230.29,31l-2.22.59c.41,1.74.62,1,.62,2.49,0,.87-.71,1-1.29,1.28l-2.22-5.64-4.78-3.41-.64.62,4.07,4.28c-.54,1.54-.61,6-2.85,2.87l2.1-1-5.23-5.48-3.14,1.22-3.09,3c-.33,2.39-1,3.59-3.48,3.59-1.66,0-.66-.43-3.21-.65V28.25h5.77L208.83,24l-.7.42V23.11l9.38-4.32c-.17-1.34-.39-.62-.39-2.09a14.1,14.1,0,0,1,.64-1.29l2.43,1.51-.58-2.76-3.74.77-.7-3.36c3-1.56,9.5-7.06,11.57-7.06h1.93c2,0,7.45,2,8.34,3.2l-5.15-.52,3.82,3.15L236.05,9l2.84-.78,0-1.78h1.29V8.36l7.3-2.11Z"/>
      <path class="cls-3"
            d="M306,27.15c-4.46-9.55-17.26-12.25-33.52-10.39a4.07,4.07,0,0,1,.4.43l.13.11a2.52,2.52,0,0,1,.25.21,4.11,4.11,0,0,1,.83.78,3.45,3.45,0,0,1,.32.36,5.18,5.18,0,0,1,.7.71c9.36.37,16.32,3.21,19,9.34C310,59.54,182.27,115.75,168.31,84.08c-2.93-5.72-.92-12.32,4.37-19.06a2.34,2.34,0,0,1-.09-.24c-.05-.16-.09-.32-.13-.47-10.22,10.45-15,21-10.28,29.7C179.71,131.52,325.73,63.64,306,27.15Z"/>
      <path class="cls-4"
            d="M112.75,63.29c0,35.26-24.32,55.82-53.59,55.82C26.06,119.11,0,92.91,0,60.85S26.2,2.25,58.32,2.25c14.57.14,30.11,6.83,41.12,17.56L86.89,38.56C78.11,30,68.08,25.11,58.05,25.11c-17.42,0-35,14.77-35,35.74,0,19.52,15.19,35.54,37.14,35.54,16,0,27.52-8.22,28.29-21.74H59.37V53.82h52.82A89.05,89.05,0,0,1,112.75,63.29Z"/>
      <path class="cls-4" d="M180.48,94.41v22.43H112.75V4.52h22.57V94.41Z"/>
      <path class="cls-4" d="M361.31,27H333.72v90H311.07V27H283.41V4.59h77.9Z"/>
      <path class="cls-9"
            d="M274.36,33.65a3.81,3.81,0,1,1-3.8-3.8A3.81,3.81,0,0,1,274.36,33.65Zm-3.81-3.31a3.31,3.31,0,1,0,3.31,3.31A3.31,3.31,0,0,0,270.55,30.34Z"/>
      <path class="cls-9"
            d="M273,33.65a2.4,2.4,0,1,1-2.4-2.4A2.39,2.39,0,0,1,273,33.65Zm-2.4-2a2,2,0,1,0,2,2A2,2,0,0,0,270.55,31.69Z"/>
      <path class="cls-10" d="M263.32,61.8l19.27-.37Q280.7,70,278.83,78.62"/>
    </g>
  </g>
</svg>
